<svg width="401" height="440" viewBox="0 0 401 440" fill="none" xmlns="http://www.w3.org/2000/svg">
<path d="M291.04 0V4.13H299.31C306.16 4.13 311.71 9.68003 311.71 16.53V31C311.71 35.57 308.01 39.27 303.44 39.27H291.04V70.27C291.04 74.84 287.34 78.54 282.77 78.54H270.37V109.54C270.37 114.11 266.67 117.81 262.1 117.81H249.7V148.81C249.7 153.38 246 157.08 241.43 157.08C236.86 157.08 233.16 153.38 233.16 148.81V117.81H220.76C216.19 117.81 212.49 114.11 212.49 109.54V88.87C212.49 84.3 216.19 80.6 220.76 80.6H233.16V49.6C233.16 45.03 236.86 41.33 241.43 41.33H253.83V16.53C253.83 9.68003 259.38 4.13 266.23 4.13H274.5V0H208.36V4.13H216.63C223.48 4.13 229.03 9.68003 229.03 16.53V31C229.03 35.57 225.33 39.27 220.76 39.27H208.36V70.27C208.36 74.84 204.66 78.54 200.09 78.54C195.52 78.54 191.82 74.84 191.82 70.27V39.27H179.42C174.85 39.27 171.15 35.57 171.15 31V16.53C171.15 9.68003 176.7 4.13 183.55 4.13H191.82V0H125.68V4.13H133.95C140.8 4.13 146.35 9.68003 146.35 16.53V41.33H158.75C163.32 41.33 167.02 45.03 167.02 49.6V80.6H179.42C183.99 80.6 187.69 84.3 187.69 88.87V109.54C187.69 114.11 183.99 117.81 179.42 117.81H167.02V148.81C167.02 153.38 163.32 157.08 158.75 157.08C154.18 157.08 150.48 153.38 150.48 148.81V117.81H138.08C133.51 117.81 129.81 114.11 129.81 109.54V78.54H117.41C112.84 78.54 109.14 74.84 109.14 70.27V39.27H96.74C92.17 39.27 88.47 35.57 88.47 31V16.53C88.47 9.68003 94.02 4.13 100.87 4.13H109.14V0H43V4.13H51.27C58.12 4.13 63.67 9.68003 63.67 16.53V41.33H76.07C80.64 41.33 84.34 45.03 84.34 49.6V80.6H96.74C101.31 80.6 105.01 84.3 105.01 88.87V119.87H117.41C121.98 119.87 125.68 123.57 125.68 128.14V159.14H138.08C142.65 159.14 146.35 162.84 146.35 167.41V198.41H171.15V167.41C171.15 162.84 174.85 159.14 179.42 159.14H191.82V128.14C191.82 123.57 195.52 119.87 200.09 119.87C204.66 119.87 208.36 123.57 208.36 128.14V159.14H220.76C225.33 159.14 229.03 162.84 229.03 167.41V198.41H253.83V167.41C253.83 162.84 257.53 159.14 262.1 159.14H274.5V128.14C274.5 123.57 278.2 119.87 282.77 119.87H295.17V88.87C295.17 84.3 298.87 80.6 303.44 80.6H315.84V49.6C315.84 45.03 319.54 41.33 324.11 41.33H336.51V16.53C336.51 9.68003 342.06 4.13 348.91 4.13H357.18V0H291.04Z" fill="white"/>
<path d="M157.09 340.22V360.89V371.22C157.09 375.79 153.39 379.49 148.82 379.49C144.25 379.49 140.55 375.79 140.55 371.22V360.89H128.15C123.58 360.89 119.88 357.19 119.88 352.62V342.29H107.48C102.91 342.29 99.21 338.59 99.21 334.02V319.55H70.27C65.7 319.55 62 315.85 62 311.28V269.94C62 265.37 65.7 261.67 70.27 261.67H117.81C122.38 261.67 126.08 265.37 126.08 269.94V300.94H150.88V259.6H138.48C133.91 259.6 130.21 255.9 130.21 251.33V241H57.87V251.33C57.87 255.9 54.17 259.6 49.6 259.6H37.2V321.61H49.6C54.17 321.61 57.87 325.31 57.87 329.88V344.35H86.81C91.38 344.35 95.08 348.05 95.08 352.62V362.95H107.48C112.05 362.95 115.75 366.65 115.75 371.22V381.55H128.15C132.72 381.55 136.42 385.25 136.42 389.82V410.49C136.42 415.06 132.72 418.76 128.15 418.76H53.74C49.17 418.76 45.47 415.06 45.47 410.49V375.35C45.47 368.5 51.02 362.95 57.87 362.95H66.14V358.82H0V362.95H8.26999C15.12 362.95 20.67 368.5 20.67 375.35V420.82H33.07C37.64 420.82 41.34 424.52 41.34 429.09V439.42H140.55V429.09C140.55 424.52 144.25 420.82 148.82 420.82C153.39 420.82 157.09 424.52 157.09 429.09V439.42H181.89V418.75H169.49C164.92 418.75 161.22 415.05 161.22 410.48V389.81C161.22 385.24 164.92 381.54 169.49 381.54H181.89V340.2H157.09V340.22Z" fill="white"/>
<path d="M276.47 362.95H359.15V352.62C359.15 348.05 362.85 344.35 367.42 344.35H379.82V334.02C379.82 329.45 383.52 325.75 388.09 325.75H400.49V278.21H388.09C383.52 278.21 379.82 274.51 379.82 269.94V259.61H367.42C362.85 259.61 359.15 255.91 359.15 251.34V241H231V245.13H239.27C246.12 245.13 251.67 250.68 251.67 257.53V422.88C251.67 429.73 246.12 435.28 239.27 435.28H231V439.41H297.14V435.28H288.87C282.02 435.28 276.47 429.73 276.47 422.88V362.94V362.95ZM276.47 261.67H346.74C351.31 261.67 355.01 265.37 355.01 269.94V280.27H367.41C371.98 280.27 375.68 283.97 375.68 288.54V315.41C375.68 319.98 371.98 323.68 367.41 323.68H355.01V334.01C355.01 338.58 351.31 342.28 346.74 342.28H276.47V261.67Z" fill="white"/>
</svg>
