<svg width="315" height="199" viewBox="0 0 315 199" fill="none" xmlns="http://www.w3.org/2000/svg">
<path d="M293.5 0H248.03V4.13H256.3C263.15 4.13 268.7 9.68 268.7 16.53V31C268.7 35.57 265 39.27 260.43 39.27H248.03V70.27C248.03 74.84 244.33 78.54 239.76 78.54H227.36V109.54C227.36 114.11 223.66 117.81 219.09 117.81H206.69V148.81C206.69 153.38 202.99 157.08 198.42 157.08C193.85 157.08 190.15 153.38 190.15 148.81V117.81H177.75C173.18 117.81 169.48 114.11 169.48 109.54V88.87C169.48 84.3 173.18 80.6 177.75 80.6H190.15V49.6C190.15 45.03 193.85 41.33 198.42 41.33H210.82V16.53C210.82 9.68 216.37 4.13 223.22 4.13H231.49V0H165.35V4.13H173.62C180.47 4.13 186.02 9.68 186.02 16.53V31C186.02 35.57 182.32 39.27 177.75 39.27H165.35V70.27C165.35 74.84 161.65 78.54 157.08 78.54C152.51 78.54 148.81 74.84 148.81 70.27V39.27H136.41C131.84 39.27 128.14 35.57 128.14 31V16.53C128.14 9.68 133.69 4.13 140.54 4.13H148.81V0H82.67V4.13H90.94C97.79 4.13 103.34 9.68 103.34 16.53V41.33H115.74C120.31 41.33 124.01 45.03 124.01 49.6V80.6H136.41C140.98 80.6 144.68 84.3 144.68 88.87V109.54C144.68 114.11 140.98 117.81 136.41 117.81H124.01V148.81C124.01 153.38 120.31 157.08 115.74 157.08C111.17 157.08 107.47 153.38 107.47 148.81V117.81H95.07C90.5 117.81 86.8 114.11 86.8 109.54V78.54H74.4C69.83 78.54 66.13 74.84 66.13 70.27V39.27H53.73C49.16 39.27 45.46 35.57 45.46 31V16.53C45.46 9.68 51.01 4.13 57.86 4.13H66.13V0H0V4.13H8.27C15.12 4.13 20.67 9.68 20.67 16.53V41.33H33.07C37.64 41.33 41.34 45.03 41.34 49.6V80.6H53.74C58.31 80.6 62.01 84.3 62.01 88.87V119.87H74.41C78.98 119.87 82.68 123.57 82.68 128.14V159.14H95.08C99.65 159.14 103.35 162.84 103.35 167.41V198.41H128.15V167.41C128.15 162.84 131.85 159.14 136.42 159.14H148.82V128.14C148.82 123.57 152.52 119.87 157.09 119.87C161.66 119.87 165.36 123.57 165.36 128.14V159.14H177.76C182.33 159.14 186.03 162.84 186.03 167.41V198.41H210.83V167.41C210.83 162.84 214.53 159.14 219.1 159.14H231.5V128.14C231.5 123.57 235.2 119.87 239.77 119.87H252.17V88.87C252.17 84.3 255.87 80.6 260.44 80.6H272.84V49.6C272.84 45.03 276.54 41.33 281.11 41.33H293.51V16.53C293.51 9.68 299.06 4.13 305.91 4.13H314.18V0H293.51H293.5Z" fill="white"/>
</svg>
